<?xml version="1.0" encoding="utf-8"?>
<!-- Generator: Adobe Illustrator 21.0.2, SVG Export Plug-In . SVG Version: 6.00 Build 0)  -->
<svg version="1.1"
	 id="svg4443" inkscape:version="0.91 r13725" sodipodi:docname="OutsiteLogoV2.svg" xmlns:cc="http://creativecommons.org/ns#" xmlns:dc="http://purl.org/dc/elements/1.1/" xmlns:inkscape="http://www.inkscape.org/namespaces/inkscape" xmlns:rdf="http://www.w3.org/1999/02/22-rdf-syntax-ns#" xmlns:sodipodi="http://sodipodi.sourceforge.net/DTD/sodipodi-0.dtd" xmlns:svg="http://www.w3.org/2000/svg"
	 xmlns="http://www.w3.org/2000/svg" xmlns:xlink="http://www.w3.org/1999/xlink" x="0px" y="0px" viewBox="0 0 422.5 153.2"
	 style="enable-background:new 0 0 422.5 153.2;" xml:space="preserve">
<style type="text/css">
	.st0{fill:#FFFFFF;}
</style>
<sodipodi:namedview  bordercolor="#666666" borderopacity="1.0" fit-margin-bottom="0" fit-margin-left="0" fit-margin-right="0" fit-margin-top="0" id="base" inkscape:current-layer="layer1" inkscape:cx="256.22331" inkscape:cy="87.627872" inkscape:document-units="px" inkscape:pageopacity="0.0" inkscape:pageshadow="2" inkscape:window-height="801" inkscape:window-maximized="1" inkscape:window-width="1536" inkscape:window-x="-8" inkscape:window-y="-8" inkscape:zoom="0.98994949" pagecolor="#ffffff" showgrid="false">
	</sodipodi:namedview>
<g id="layer1" transform="translate(-95.932143,-439.45977)" inkscape:groupmode="layer" inkscape:label="Layer 1">
	<path id="rect4153-7-5-2-7-8" inkscape:connector-curvature="0" class="st0" d="M172.4,439.5c-1.9,0-3.7,0.8-5,2.1L98,511
		c-2.8,2.8-2.8,7.4,0,10.2l69.4,69.4c2.8,2.8,7.4,2.8,10.2,0l23.5-23.5c2.8-2.8,2.9-7.3,0.1-10.2c-2.8-2.8-7.3-2.9-10.2-0.1
		c0,0-0.1,0.1-0.1,0.1l-18.4,18.4l-59.2-59.2l59.2-59.2l18.4,18.4c2.8,2.8,7.3,2.9,10.2,0.1s2.9-7.3,0.1-10.2c0,0-0.1-0.1-0.1-0.1
		l-23.5-23.5C176.3,440.2,174.4,439.4,172.4,439.5z"/>
	<path id="path4202-8-7-9-0" inkscape:connector-curvature="0" class="st0" d="M178.2,477.6c10.4,0,19.3,3.8,26.7,11.3
		c7.4,7.6,11.2,16.6,11.2,27.1c0,10.7-3.7,19.8-11.2,27.3c-7.5,7.5-16.6,11.2-27.3,11.2c-10.6,0-19.7-3.8-27.2-11.3
		c-7.5-7.5-11.3-16.6-11.3-27.2c0-10.7,3.8-19.8,11.3-27.3C157.9,481.3,167.2,477.6,178.2,477.6L178.2,477.6z M177.5,499.2
		c-4.5,0-8.3,1.6-11.4,4.9s-4.7,7.3-4.7,11.9c0,4.7,1.6,8.6,4.7,11.9c3.2,3.3,7,4.9,11.4,4.9c4.5,0,8.3-1.6,11.4-4.9
		c3.2-3.3,4.7-7.3,4.7-12c0-4.7-1.6-8.7-4.7-11.9C185.8,500.8,182,499.2,177.5,499.2L177.5,499.2z"/>
	<path id="path4204-9-2-4-1" inkscape:connector-curvature="0" class="st0" d="M276.4,479.4v47.5c0,8.4-2.5,15.1-7.5,20.1
		c-5,5-11.6,7.5-19.9,7.5c-8.3,0-14.6-2.4-19-7.3c-4.4-4.9-6.6-11.9-6.6-21v-46.8h21.8v46.8c0,4.5,1.6,6.7,4.8,6.7
		c3.1,0,4.6-2.2,4.6-6.7v-46.8L276.4,479.4L276.4,479.4z"/>
	<path id="path4206-5-3-5-5" inkscape:connector-curvature="0" class="st0" d="M320.2,500.5v52.3h-21.8v-52.3h-16.7v-21.1h55.2v21.1
		H320.2z"/>
	<path id="path4208-4-5-5-5" inkscape:connector-curvature="0" class="st0" d="M378,479.1V500c-1.6-0.5-2.8-0.8-3.7-0.8
		c-1.6,0-3.1,0.6-4.2,1.8c-1.2,1.2-1.8,2.7-1.8,4.4c0,1.5,0.6,3.3,1.9,5.6l1.7,2.9c3,5.2,4.5,10.3,4.5,15.1c0,7.1-2.5,13.2-7.6,18.1
		c-5,4.9-11.2,7.4-18.5,7.4c-3.5,0-7-0.8-10.4-2.4v-21.2c2.1,1.3,3.9,2,5.5,2c1.9,0,3.5-0.5,4.7-1.6c1.3-1.1,1.9-2.5,1.9-4.1
		c0-1.1-1-3.4-3.1-7c-3.3-5.7-4.9-11.5-4.9-17.2c0-6.9,2.5-12.9,7.4-17.8c4.9-5,10.8-7.5,17.7-7.5
		C372.1,477.6,375.1,478.1,378,479.1z"/>
	<path id="path4210-3-8-7-3" inkscape:connector-curvature="0" class="st0" d="M409.4,479.4v73.3h-21.8v-73.3L409.4,479.4
		L409.4,479.4z"/>
	<path id="path4212-7-2-7-5" inkscape:connector-curvature="0" class="st0" d="M454.6,500.5v52.3h-21.8v-52.3h-16.7v-21.1h55.2v21.1
		H454.6z"/>
	<path id="path4214-6-8-5-4" inkscape:connector-curvature="0" class="st0" d="M517,507.9v16.3h-14.2c-1.9,0-3.3,0.3-4.1,0.9
		c-0.8,0.6-1.2,1.5-1.2,2.9c0,1.5,0.4,2.6,1.2,3.1c0.8,0.5,2.5,0.7,5,0.7h14.7v20.9h-17.1c-8.1,0-14.2-1.9-18.5-5.7
		c-4.3-3.9-6.4-9.4-6.4-16.7v-28.7c0-7,2-12.5,6-16.3c4-3.9,9.7-5.8,17-5.8h19v21.1h-13.9c-3.8,0-5.6,1.2-5.6,3.7
		c0,1.4,0.4,2.4,1.3,3c0.9,0.5,2.5,0.8,4.8,0.8L517,507.9L517,507.9z"/>
</g>
</svg>
